<svg xmlns="http://www.w3.org/2000/svg" width="35" height="35" viewBox="0 0 35 35">
    <g fill="none" fill-rule="evenodd">
        <path fill="#B5A5A5" fill-opacity="0" fill-rule="nonzero" d="M0 0h35v35H0z"/>
        <g fill="#FFF">
            <path d="M17.496 3.837c-3.801 0-4.278.016-5.77.083-1.49.066-2.508.298-3.398.636-.92.35-1.7.818-2.479 1.58A6.699 6.699 0 0 0 4.235 8.56c-.346.871-.583 1.867-.65 3.324-.069 1.46-.085 1.927-.085 5.645 0 3.72.016 4.185.084 5.646.068 1.457.305 2.452.65 3.323.358.9.837 1.664 1.615 2.426a6.878 6.878 0 0 0 2.479 1.579c.89.338 1.908.57 3.397.636 1.493.067 1.97.083 5.77.083 3.802 0 4.278-.016 5.77-.083 1.49-.066 2.508-.298 3.398-.636.92-.35 1.701-.818 2.48-1.58a6.698 6.698 0 0 0 1.613-2.425c.346-.87.583-1.866.651-3.323.068-1.46.084-1.927.084-5.646 0-3.718-.016-4.184-.084-5.645-.068-1.457-.305-2.453-.65-3.324a6.699 6.699 0 0 0-1.615-2.425 6.877 6.877 0 0 0-2.479-1.579c-.89-.338-1.907-.57-3.397-.636-1.493-.067-1.97-.083-5.77-.083m0 2.467c3.737 0 4.18.014 5.655.08 1.365.061 2.106.284 2.599.472.653.248 1.12.545 1.609 1.024.49.479.793.935 1.047 1.574.192.483.42 1.208.482 2.543.067 1.443.081 1.876.081 5.532s-.014 4.09-.081 5.533c-.062 1.335-.29 2.06-.482 2.543a4.236 4.236 0 0 1-1.047 1.574c-.49.48-.956.776-1.61 1.024-.492.188-1.233.41-2.598.472-1.476.066-1.918.08-5.655.08-3.738 0-4.18-.014-5.656-.08-1.364-.061-2.105-.284-2.599-.472a4.347 4.347 0 0 1-1.609-1.024 4.235 4.235 0 0 1-1.047-1.574c-.191-.483-.42-1.208-.482-2.543-.067-1.443-.081-1.877-.081-5.533 0-3.656.014-4.089.081-5.532.063-1.335.29-2.06.482-2.543A4.235 4.235 0 0 1 7.632 7.88c.49-.48.956-.776 1.61-1.024.493-.188 1.234-.411 2.598-.472 1.476-.066 1.919-.08 5.656-.08"/>
            <path d="M17.496 22.094c-2.577 0-4.666-2.044-4.666-4.565 0-2.52 2.09-4.564 4.666-4.564 2.576 0 4.665 2.044 4.665 4.564 0 2.521-2.089 4.565-4.665 4.565m0-11.596c-3.97 0-7.187 3.148-7.187 7.031 0 3.884 3.217 7.032 7.187 7.032 3.969 0 7.186-3.148 7.186-7.032 0-3.883-3.217-7.03-7.186-7.03M26.646 10.22c0 .908-.752 1.644-1.68 1.644-.927 0-1.679-.736-1.679-1.643 0-.908.752-1.644 1.68-1.644.927 0 1.679.736 1.679 1.644"/>
        </g>
    </g>
</svg>
