<svg xmlns="http://www.w3.org/2000/svg" width="35" height="35" viewBox="0 0 35 35">
    <g fill="none" fill-rule="evenodd">
        <path fill-rule="nonzero" d="M0 0h35v35H0z"/>
        <path fill="#FFF" d="M18.497 4.27C11.505 4.27 7 9.075 7 13.711c0 4.524 2.583 5.586 3.124 5.89.54.307.925.091 1.045-.326l.325-1.264s.151-.335-.148-.686c-.368-.43-1.165-1.215-1.165-3.17 0-3.487 2.84-7.284 7.987-7.284 5.052 0 6.783 3.19 6.783 5.829 0 3.282-1.622 8.19-5.047 8.19-2.126 0-2.738-1.591-2.738-2.37-.014-.263.048-.528.075-.654.026-.125.891-2.795 1.166-3.746.619-2.132.09-3.907-1.932-3.907-2.851 0-3.877 3.89-2.626 6.378l-2.035 8.075s-.28 1.322-.336 2.102c-.084 1.198.092 2.97.152 3.499.044.382.045.566.225.6.18.034.486-.261.734-.616.311-.447 1.37-1.895 1.8-2.816.382-.822.45-.843.848-2.298.397-1.456.932-3.501.932-3.501s1.116 1.894 4.132 1.894c4.288 0 8.65-3.62 8.65-10.388 0-5.487-4.904-8.872-10.454-8.872"/>
    </g>
</svg>
