<svg xmlns="http://www.w3.org/2000/svg" xmlns:xlink="http://www.w3.org/1999/xlink" width="35" height="35" viewBox="0 0 35 35">
    <defs>
        <path id="a" d="M0 0h27.8v22.593H0z"/>
    </defs>
    <g fill="none" fill-rule="evenodd">
        <path fill-rule="nonzero" d="M0 0h35v35H0z"/>
        <g transform="translate(4 6)">
            <mask id="b" fill="#fff">
                <use xlink:href="#a"/>
            </mask>
            <path fill="#FFF" d="M8.743 22.593c10.49 0 16.228-8.691 16.228-16.228 0-.247-.005-.493-.016-.737A11.603 11.603 0 0 0 27.8 2.675c-1.022.454-2.122.76-3.275.898A5.723 5.723 0 0 0 27.033.418a11.428 11.428 0 0 1-3.622 1.384 5.705 5.705 0 0 0-9.72 5.202 16.193 16.193 0 0 1-11.756-5.96 5.684 5.684 0 0 0-.773 2.867A5.7 5.7 0 0 0 3.701 8.66a5.661 5.661 0 0 1-2.584-.714v.073a5.706 5.706 0 0 0 4.575 5.592 5.72 5.72 0 0 1-2.576.098 5.71 5.71 0 0 0 5.328 3.961 11.445 11.445 0 0 1-7.083 2.442A11.6 11.6 0 0 1 0 20.03a16.147 16.147 0 0 0 8.743 2.562" mask="url(#b)"/>
        </g>
    </g>
</svg>
