<svg xmlns="http://www.w3.org/2000/svg" width="64" height="64" viewBox="0 0 64 64">
    <g fill="none" fill-rule="evenodd">
        <path d="M0 0h64v64H0z"/>
        <path fill="#FFF" d="M50.789 19.738a.503.503 0 0 1-.01.067l-.279 1.346a1.313 1.313 0 0 1-1.27 1.057c-.09 0-.182-.01-.272-.03l-1.058-.23c-.339-.075-.63-.28-.82-.578a1.354 1.354 0 0 1-.18-1.005l.266-1.286a.708.708 0 0 1 .007-.052 3.095 3.095 0 0 0-.537-2.402 2.905 2.905 0 0 0-2.105-1.196c-1.482-.134-2.84.972-3.164 2.534L35.421 46.67c-1.032 4.986-5.385 8.604-10.35 8.604-1.063 0-2.125-.166-3.155-.493-4.993-1.585-8.268-7.477-7.152-12.868l.22-1.063a.522.522 0 0 1 .248-.347.614.614 0 0 1 .399-.083l11.76 2.565c.338.074.63.279.818.578.19.299.254.656.182 1.004l-.226 1.087c-.145.702-.855 1.177-1.54 1.028l-8.45-1.843c.19 3.378 2.697 6.166 6.042 6.602 3.583.478 6.89-2.117 7.651-5.79l5.885-28.414c.726-3.507 3.879-5.99 7.307-5.551 1.866.23 3.497 1.216 4.592 2.774a6.964 6.964 0 0 1 1.137 5.277zM32 0C14.327 0 0 14.327 0 32c0 17.673 14.327 32 32 32 17.673 0 32-14.327 32-32C64 14.327 49.673 0 32 0z"/>
    </g>
</svg>
